<svg xmlns="http://www.w3.org/2000/svg" viewBox="0 0 100 22.01"><path d="M48.91 20.12h21.9v1.9h-21.9v-1.9z" fill="#29b08e"/><path d="M31.43 10.44c0 2.71.32 4.62 2.12 4.62 1.38.02 1.88-1.11 1.88-2.96h2.35c-.16 2.93-1.17 4.77-4.23 4.77-3.59 0-4.6-2.64-4.6-6.44S29.96 4 33.55 4c3.7-.05 4.26 2.87 4.26 4.39h-2.48c0-1.14-.32-2.61-1.77-2.57-1.81 0-2.13 1.91-2.13 4.62zM15.46.84h-2.48v3.48h-1.7v1.82h1.7v7.6c0 2.5.83 2.96 2.51 2.96a8.7 8.7 0 0 0 2-.2v-1.82c-.23.05-.53.07-.9.07-.85 0-1.13-.34-1.13-1.3v-7.3h2.02V4.32h-2.02V.84zM2.85 4.3c0-1.73 1.08-2.34 2.21-2.34 1.93 0 2.3 1.11 2.3 2.68h2.62C9.98 1.68 8.87 0 5.34 0 2.25 0 .23 1.64.23 4.59c0 6.15 7.57 3.32 7.57 7.96 0 1.21-.83 2.37-2.49 2.37-2.23 0-2.69-1.39-2.69-3.39H0c0 3.44 1.47 5.34 4.99 5.34 3.31 0 5.43-1.43 5.43-4.89 0-5.89-7.57-3.45-7.57-7.68zm24.69 10.57c.16 0 .32-.02.41-.07v1.59c-.3.14-.74.3-1.22.3-1.1 0-2.02-.43-2.09-1.62h-.04a3.22 3.22 0 0 1-3.08 1.8c-1.98 0-3.22-1.09-3.22-3.43 0-2.73 1.19-3.3 2.87-3.84 2.55-.69 3.38-.69 3.38-2.09 0-1.11-.39-1.82-1.7-1.82-1.65 0-1.89 1.16-1.89 2.34h-2.34c0-2.6 1.08-4.03 4.34-4.03 2.19 0 3.93.84 3.93 3v7c.01.46.28.87.65.87zm-2.99-4.77c-.64.5-2.02.8-2.76 1.14-.71.34-1.01 1.07-1.01 1.98 0 1.02.5 1.84 1.54 1.84 2.51 0 2.23-2.76 2.23-4.96zM56.79.32l4.32 16.24h-2.74l-1.01-3.98h-4.81l-1.06 3.98h-5.06l-3.04-5.57-1.4 1.68v3.89h-2.48V.32h2.48v9.12h.05l3.75-5.12 2.88-.02-3.73 4.73 3.95 7.07L53.43.32h3.36zm.13 10.19L55.04 2.5h-.05l-1.95 8.01h3.88zM100 6.14V4.32h-2.02V.84H95.5v3.48h-1.7v1.82h1.7v7.6c0 2.5.83 2.96 2.51 2.96a8.7 8.7 0 0 0 2-.2v-1.82c-.23.05-.53.07-.9.07-.85 0-1.13-.34-1.13-1.3v-7.3H100zm-7.02 4.46c0 5.14-2.12 6.28-3.82 6.28-1.33 0-2.35-.66-2.81-1.75h-.05v5.43h-2.49V4.32h2.35v1.5h.05A2.94 2.94 0 0 1 89 4c2.83 0 3.98 2.39 3.98 6.6zm-2.62-.12c0-2.78-.37-4.53-2.09-4.53-1.7 0-2.09 1.73-2.09 4.34 0 2.93.37 4.62 2.12 4.62 1.41.01 2.06-1.04 2.06-4.43zM68.29.32h2.49v16.24h-2.35v-1.5h-.05c-.32.8-.94 1.82-2.71 1.82-2.9 0-4.05-2.39-4.05-6.6 0-5.44 1.93-6.28 3.82-6.28 1.33 0 2.35.66 2.81 1.75h.05V.32zm.14 10.26c0-2.93-.35-4.62-2.25-4.62-1.43 0-1.93 1.14-1.93 4.44 0 2.77.37 4.53 2.09 4.53 1.7-.01 2.09-1.74 2.09-4.35zm13.5 4.29c.16 0 .32-.02.41-.07v1.59c-.3.14-.74.3-1.22.3-1.1 0-2.02-.43-2.09-1.62h-.04a3.22 3.22 0 0 1-3.08 1.8c-1.98 0-3.22-1.09-3.22-3.43 0-2.73 1.19-3.3 2.87-3.84 2.57-.7 3.38-.7 3.38-2.09 0-1.11-.39-1.82-1.7-1.82-1.65 0-1.89 1.16-1.89 2.34h-2.34c0-2.59 1.08-4.03 4.35-4.03 2.19 0 3.93.84 3.93 3v7c0 .46.28.87.64.87zm-2.98-4.77c-.64.5-2.02.8-2.76 1.14-.71.34-1.01 1.07-1.01 1.98 0 1.02.5 1.84 1.54 1.84 2.56 0 2.23-2.92 2.23-4.96z" fill="#fff"/></svg>