<svg xmlns="http://www.w3.org/2000/svg" viewBox="0 0 256 256"><path d="M64.31 112.97v36.53a18.26 18.26 0 1 1 0-36.53zm127.38 0v36.53a18.26 18.26 0 1 0 0-36.53z" fill="#ec0044"/><path d="M191.69 130.78l-5.81 47.88-59.32 16.81-56.42-16.81-5.81-47.88h127.36z" fill="#bbd2dc"/><path d="M191.69 130.78H64.31l-1.62-19.08c0-35.92 29.39-65.31 65.31-65.31s65.31 29.39 65.31 65.31l-1.62 19.08z" fill="#8eb8c9"/><path d="M199.29 179.91l-17.16 71.57H75.35l-17.16-71.57a6 6 0 0 1 6.01-6.01c44.31 29.37 84.05 27.42 129.08 0a6 6 0 0 1 6.01 6.01zm-47.6-88.32l5.42-38.22a64.3 64.3 0 0 0-58.21 0l5.42 38.22h47.37z" fill="#5d89b4"/><path d="M136.2 12.72a8.2 8.2 0 1 1-16.4 0 8.2 8.2 0 0 1 16.4 0zm21.2 96.58a21.68 21.68 0 1 0 0 43.36 21.68 21.68 0 0 0 0-43.36zm-58.02 3.67a18 18 0 1 0 0 36.01 18 18 0 0 0 0-36.01z" fill="#ffd100"/><path d="M214.47 131.24a22.75 22.75 0 0 0-16.76-21.87c-1.19-35.55-29.2-64.94-65.19-67.26V24.58a12.72 12.72 0 0 0 8.2-11.85C140.72 5.71 135.01 0 128 0a12.74 12.74 0 0 0-12.72 12.72 12.7 12.7 0 0 0 8.2 11.85V42.1c-35.5 2.29-63.84 31.21-65.17 67.25a22.75 22.75 0 0 0-16.78 21.88 22.73 22.73 0 0 0 20.21 22.52l1.33 15.66c-7.08.26-11.06 7.18-10.03 11.55l17.16 71.57a4.53 4.53 0 0 0 4.4 3.46h106.78a4.53 4.53 0 0 0 4.4-3.46l17.16-71.57c1.01-4.13-2.74-11.28-10.02-11.55l1.33-15.66a22.71 22.71 0 0 0 20.22-22.51zm-17.24-12.56a13.75 13.75 0 0 1 8.2 12.55c0 6.42-4.44 11.78-10.39 13.28l2.19-25.83zM50.57 131.24c0-5.6 3.37-10.4 8.19-12.55l2.2 25.83a13.73 13.73 0 0 1-10.39-13.28zM128 9.04a3.68 3.68 0 1 1 0 7.37 3.68 3.68 0 0 1 0-7.37zm24.16 46.99l-4.4 31.04h-39.53l-4.4-31.04a59.88 59.88 0 0 1 48.33 0zm-56.82 4.49l4.49 31.7a4.52 4.52 0 0 0 4.47 3.89h47.37a4.51 4.51 0 0 0 4.47-3.89l4.5-31.71c16.89 10.79 28.13 29.6 28.14 50.92l-1.63 16.17h-3.81c-1.67-12.85-12.66-22.81-25.96-22.81s-24.29 9.96-25.96 22.81h-9.87a22.5 22.5 0 0 0-22.19-19.14 22.5 22.5 0 0 0-22.19 19.14h-8.66l-1.32-15.89a60.82 60.82 0 0 1 28.15-51.19zm4.04 93a22.5 22.5 0 0 0 22.19-19.14h9.88c1.67 12.85 12.66 22.81 25.96 22.81s24.28-9.97 25.96-22.81h3.13l-4.02 39.9c-41.76 21.58-69.48 22.47-110.08-.3l-3.29-39.6h8.09a22.5 22.5 0 0 0 22.18 19.14zm-13.49-22.53a13.5 13.5 0 0 1 13.49-13.49 13.5 13.5 0 0 1 13.49 13.49 13.5 13.5 0 0 1-13.49 13.49 13.51 13.51 0 0 1-13.49-13.49zm54.34 0c0-9.46 7.7-17.16 17.17-17.16 9.46 0 17.16 7.7 17.16 17.16s-7.7 17.16-17.16 17.16a17.2 17.2 0 0 1-17.17-17.16zm50.42 49.11a1.4 1.4 0 0 1 2.02 1.57l-14.85 65.3H78.17l-14.88-65.15a1.4 1.4 0 0 1 2.05-1.55c48.07 26.39 75.53 25.55 125.31-.17zm-33.25-42.92a6.19 6.19 0 1 1 0-12.38 6.19 6.19 0 0 1 0 12.38zm-58.02 0a6.19 6.19 0 1 1 0-12.38 6.19 6.19 0 0 1 0 12.38z"/></svg>